<?xml version="1.0" encoding="UTF-8" standalone="no"?> <svg xmlns="http://www.w3.org/2000/svg" xmlns:xlink="http://www.w3.org/1999/xlink" xmlns:serif="http://www.serif.com/" width="100%" height="100%" viewBox="0 0 1200 583" version="1.1" xml:space="preserve" style="fill-rule:evenodd;clip-rule:evenodd;stroke-linejoin:round;stroke-miterlimit:2;"> <g id="cromwood-logo" transform="matrix(1.17188,0,0,0.758863,0,0)"> <rect x="0" y="0" width="1024" height="768" style="fill:none;"></rect> <g transform="matrix(2.36998,0,0,2.36998,-690.056,-526.073)"> <g transform="matrix(0.853333,0,0,1.31776,590.738,234.95)"> <path d="M0,226.261C0,226.261 0.023,225.814 0.148,225.072C0.25,224.279 0.505,223.274 0.653,221.98C0.858,220.755 1.207,219.307 1.641,217.745C2.115,216.236 2.683,214.558 3.472,212.905C4.263,211.254 5.242,209.576 6.491,207.962C7.754,206.364 9.146,204.68 11.321,203.614C15.439,201.291 23.653,202.019 28.015,197.892C32.629,194.085 37.44,189.706 42.151,184.707C46.786,179.656 51.468,174.094 55.629,167.864C57.751,164.778 59.766,161.545 61.73,158.233C63.646,154.893 65.474,151.451 67.159,147.901C68.833,144.332 70.346,140.727 71.648,136.928C72.309,135.041 73.05,133.17 73.646,131.264L75.379,125.515C75.997,123.612 76.454,121.656 76.916,119.706C77.389,117.76 77.812,115.805 78.214,113.847C78.858,109.898 79.619,105.996 79.974,102.047C80.788,94.171 79.929,86.156 78.072,78.373C76.265,70.594 73.828,63.11 72.309,56.188C70.788,49.264 70.208,42.887 70.443,37.071C70.585,31.252 71.668,26.006 73.484,21.375C75.295,16.746 77.741,12.711 80.326,9.355C82.888,5.989 85.547,3.285 87.567,1.396C88.571,0.449 89.532,-0.293 90.089,-0.794C90.734,-1.301 91.068,-1.562 91.068,-1.562C91.068,-1.562 91.439,-1.326 92.076,-0.858C92.651,-0.386 93.636,0.313 94.678,1.248C95.21,1.717 95.79,2.242 96.365,2.825C96.978,3.41 97.595,4.058 98.21,4.755C98.855,5.452 99.455,6.203 100.087,7.014C100.755,7.819 101.332,8.682 101.971,9.597C103.269,11.439 104.401,13.471 105.445,15.696C106.486,17.92 107.413,20.347 108.073,22.908C109.475,28.057 109.88,33.832 109.122,40.023C108.433,46.215 106.673,52.832 103.642,59.629C100.595,66.424 96.381,73.386 92.316,80.492C91.286,82.269 90.361,84.071 89.422,85.875C88.46,87.675 87.563,89.494 86.74,91.33C85.123,95.011 83.633,98.739 82.5,102.553C81.431,106.383 80.262,110.217 79.243,114.088C78.14,117.947 77.119,121.828 76.085,125.717C74.999,129.594 73.957,133.489 72.713,137.285C71.605,141.116 70.111,144.905 68.547,148.537C65.295,155.803 61.362,162.596 57.219,168.926C53.031,175.223 48.827,181.218 44.691,186.815C40.585,192.434 36.618,197.722 32.874,202.588C28.88,207.137 29.111,215.495 25.993,219.765C24.55,221.99 22.501,223.331 20.534,224.472C18.564,225.607 16.532,226.391 14.569,226.92C12.605,227.446 10.676,227.673 8.939,227.765C7.18,227.823 5.607,227.683 4.247,227.496C2.827,227.241 1.857,227.006 1.115,226.694C0.403,226.45 0,226.261 0,226.261" style="fill:rgb(138,170,4);fill-rule:nonzero;"></path> </g> <g transform="matrix(0.853333,0,0,1.31776,658.982,251.064)"> <path d="M0,89.819C0.814,81.943 -0.045,73.927 -1.901,66.145C-3.709,58.366 -6.146,50.881 -7.665,43.96C-9.186,37.036 -9.766,30.659 -9.53,24.842C-9.389,19.024 -8.306,13.778 -6.489,9.147C-4.679,4.518 -2.232,0.483 0.353,-2.873C2.914,-6.24 5.573,-8.943 7.594,-10.832C8.598,-11.779 9.559,-12.521 10.115,-13.022C10.761,-13.529 11.095,-13.79 11.095,-13.79C11.095,-13.79 11.466,-13.554 12.103,-13.086C12.678,-12.615 13.662,-11.915 14.704,-10.98C15.236,-10.511 15.816,-9.986 16.392,-9.403C17.004,-8.818 17.621,-8.17 18.236,-7.473C18.882,-6.776 19.481,-6.025 20.113,-5.214C20.781,-4.41 21.358,-3.546 21.997,-2.631C23.295,-0.789 24.428,1.243 25.472,3.467C26.513,5.692 27.439,8.119 28.1,10.68C29.501,15.829 29.906,21.604 29.148,27.795C28.459,33.987 26.699,40.604 23.668,47.401C20.621,54.196 16.407,61.158 12.343,68.264C11.313,70.041 10.388,71.842 9.448,73.647C8.486,75.447 7.589,77.266 6.767,79.102C5.149,82.783 3.659,86.51 2.526,90.325L-1.604,103.609L0,89.819Z" style="fill:rgb(4,125,170);fill-rule:nonzero;"></path> </g> <g transform="matrix(0.853333,0,0,1.31776,643.338,384.826)"> <path d="M0,59.623C6.617,55.273 11.684,48.402 16.539,42.044C21.42,35.727 25.679,29.105 30.078,23.551C34.482,17.994 39.052,13.51 43.711,10.018C48.304,6.443 53.054,3.967 57.789,2.445C62.523,0.922 67.192,0.262 71.429,0.146C75.658,0 79.433,0.348 82.175,0.721C83.542,0.904 84.727,1.178 85.467,1.29C86.269,1.47 86.681,1.564 86.681,1.564C86.681,1.564 86.731,1.998 86.771,2.791C86.771,3.531 86.851,4.74 86.786,6.137C86.761,6.848 86.719,7.629 86.629,8.441C86.562,9.287 86.456,10.174 86.302,11.094C86.172,12.033 85.967,12.97 85.741,13.971C85.541,15.002 85.234,15.992 84.927,17.066C84.322,19.236 83.465,21.396 82.404,23.613C81.335,25.828 80.043,28.084 78.476,30.213C75.374,34.551 71.159,38.519 65.881,41.844C60.645,45.226 54.405,48.045 47.225,49.992C40.033,51.928 31.975,53.066 23.896,54.411C21.873,54.738 19.895,55.156 17.898,55.572C15.896,55.966 13.921,56.421 11.975,56.945C8.103,58.023 3.672,58.086 0,59.623" style="fill:rgb(170,4,66);fill-rule:nonzero;"></path> </g> <g transform="matrix(0.853333,0,0,1.31776,635.151,312.431)"> <path d="M0,101.663C-1.709,93.93 -6.329,86.752 -10.543,79.953C-14.712,73.143 -19.389,66.808 -23.013,60.721C-26.64,54.63 -29.206,48.76 -30.816,43.168C-32.519,37.601 -33.146,32.282 -32.883,27.314C-32.623,22.35 -31.578,17.75 -30.181,13.75C-28.812,9.746 -27.145,6.342 -25.822,3.913C-25.164,2.699 -24.49,1.687 -24.12,1.039C-23.667,0.351 -23.432,0 -23.432,0C-23.432,0 -23.007,0.106 -22.25,0.351C-21.559,0.617 -20.403,0.972 -19.118,1.529C-18.464,1.807 -17.751,2.121 -17.021,2.494C-16.256,2.855 -15.462,3.276 -14.659,3.744C-13.827,4.199 -13.024,4.726 -12.17,5.293C-11.277,5.844 -10.458,6.482 -9.565,7.152C-7.753,8.49 -6.036,10.062 -4.344,11.844C-2.654,13.625 -1.007,15.634 0.423,17.859C3.375,22.299 5.587,27.653 6.814,33.767C8.115,39.861 8.53,46.699 7.801,54.103C7.047,61.512 5.246,69.449 3.632,77.473C3.214,79.486 2.904,81.484 2.584,83.492C2.237,85.506 1.96,87.514 1.76,89.519C1.388,93.519 -0.127,97.687 0,101.663" style="fill:rgb(125,4,170);fill-rule:nonzero;"></path> </g> <g transform="matrix(0.988073,0,0,0.530384,-50.9771,187.386)"> <g transform="matrix(45.1022,0,0,129.752,350.357,414.043)"> <path d="M0.696,-0.098C0.665,-0.062 0.626,-0.033 0.58,-0.013C0.534,0.008 0.481,0.019 0.421,0.019C0.366,0.019 0.316,0.01 0.27,-0.008C0.223,-0.026 0.183,-0.052 0.149,-0.085C0.115,-0.118 0.088,-0.157 0.069,-0.203C0.05,-0.249 0.04,-0.3 0.04,-0.355C0.04,-0.412 0.05,-0.463 0.07,-0.509C0.089,-0.555 0.116,-0.594 0.151,-0.627C0.186,-0.659 0.226,-0.684 0.273,-0.701C0.32,-0.718 0.37,-0.727 0.424,-0.727C0.474,-0.727 0.523,-0.718 0.572,-0.701C0.62,-0.683 0.659,-0.657 0.689,-0.623L0.573,-0.507C0.557,-0.529 0.536,-0.545 0.51,-0.556C0.484,-0.567 0.457,-0.572 0.43,-0.572C0.4,-0.572 0.373,-0.567 0.348,-0.556C0.323,-0.545 0.301,-0.529 0.283,-0.51C0.265,-0.491 0.251,-0.468 0.241,-0.442C0.231,-0.415 0.226,-0.386 0.226,-0.355C0.226,-0.323 0.231,-0.294 0.241,-0.267C0.251,-0.24 0.265,-0.218 0.283,-0.199C0.3,-0.18 0.321,-0.165 0.346,-0.154C0.371,-0.143 0.398,-0.138 0.427,-0.138C0.461,-0.138 0.491,-0.145 0.516,-0.158C0.541,-0.171 0.562,-0.189 0.577,-0.21L0.696,-0.098Z" style="fill:rgb(25,25,23);fill-rule:nonzero;"></path> </g> <g transform="matrix(45.1022,0,0,129.752,381.748,414.043)"> <path d="M0.452,-0L0.299,-0.281L0.241,-0.281L0.241,-0L0.073,-0L0.073,-0.708L0.343,-0.708C0.377,-0.708 0.41,-0.705 0.443,-0.698C0.475,-0.691 0.504,-0.679 0.53,-0.662C0.555,-0.645 0.576,-0.623 0.591,-0.596C0.606,-0.569 0.614,-0.535 0.614,-0.494C0.614,-0.446 0.601,-0.406 0.575,-0.373C0.549,-0.34 0.513,-0.317 0.467,-0.303L0.652,-0L0.452,-0ZM0.445,-0.491C0.445,-0.508 0.442,-0.521 0.435,-0.532C0.428,-0.542 0.419,-0.55 0.408,-0.556C0.397,-0.561 0.384,-0.565 0.371,-0.567C0.357,-0.569 0.344,-0.57 0.331,-0.57L0.24,-0.57L0.24,-0.405L0.321,-0.405C0.335,-0.405 0.349,-0.406 0.364,-0.409C0.379,-0.411 0.392,-0.415 0.404,-0.421C0.416,-0.427 0.426,-0.436 0.434,-0.447C0.441,-0.458 0.445,-0.473 0.445,-0.491Z" style="fill:rgb(25,25,23);fill-rule:nonzero;"></path> </g> <g transform="matrix(45.1022,0,0,129.752,411.651,414.043)"> <path d="M0.811,-0.357C0.811,-0.301 0.801,-0.25 0.782,-0.204C0.763,-0.157 0.736,-0.118 0.702,-0.085C0.667,-0.052 0.626,-0.026 0.579,-0.008C0.532,0.01 0.48,0.019 0.425,0.019C0.37,0.019 0.319,0.01 0.272,-0.008C0.225,-0.026 0.184,-0.052 0.15,-0.085C0.115,-0.118 0.088,-0.157 0.069,-0.204C0.05,-0.25 0.04,-0.301 0.04,-0.357C0.04,-0.414 0.05,-0.465 0.069,-0.511C0.088,-0.556 0.115,-0.595 0.15,-0.627C0.184,-0.659 0.225,-0.684 0.272,-0.701C0.319,-0.718 0.37,-0.727 0.425,-0.727C0.48,-0.727 0.532,-0.718 0.579,-0.701C0.626,-0.684 0.667,-0.659 0.702,-0.627C0.736,-0.595 0.763,-0.556 0.782,-0.511C0.801,-0.465 0.811,-0.414 0.811,-0.357ZM0.628,-0.357C0.628,-0.388 0.623,-0.416 0.613,-0.443C0.603,-0.47 0.589,-0.493 0.572,-0.512C0.554,-0.531 0.533,-0.546 0.508,-0.557C0.483,-0.568 0.455,-0.573 0.425,-0.573C0.395,-0.573 0.368,-0.568 0.343,-0.557C0.318,-0.546 0.297,-0.531 0.279,-0.512C0.261,-0.493 0.247,-0.47 0.238,-0.443C0.228,-0.416 0.223,-0.388 0.223,-0.357C0.223,-0.325 0.228,-0.296 0.238,-0.269C0.248,-0.242 0.262,-0.218 0.28,-0.199C0.297,-0.18 0.318,-0.165 0.343,-0.154C0.368,-0.142 0.395,-0.137 0.425,-0.137C0.455,-0.137 0.482,-0.142 0.507,-0.154C0.532,-0.165 0.553,-0.18 0.571,-0.199C0.589,-0.218 0.603,-0.242 0.613,-0.269C0.623,-0.296 0.628,-0.325 0.628,-0.357Z" style="fill:rgb(25,25,23);fill-rule:nonzero;"></path> </g> <g transform="matrix(45.1022,0,0,129.752,450.033,414.043)"> <path d="M0.715,-0L0.719,-0.501L0.716,-0.501L0.532,-0L0.412,-0L0.233,-0.501L0.23,-0.501L0.234,-0L0.073,-0L0.073,-0.708L0.316,-0.708L0.477,-0.254L0.481,-0.254L0.635,-0.708L0.882,-0.708L0.882,-0L0.715,-0Z" style="fill:rgb(25,25,23);fill-rule:nonzero;"></path> </g> <g transform="matrix(45.1022,0,0,129.752,493.105,414.043)"> <path d="M0.823,-0L0.654,-0L0.514,-0.479L0.511,-0.479L0.371,-0L0.201,-0L0,-0.708L0.184,-0.708L0.296,-0.237L0.299,-0.237L0.425,-0.708L0.603,-0.708L0.73,-0.237L0.733,-0.237L0.847,-0.708L1.025,-0.708L0.823,-0Z" style="fill:rgb(25,25,23);fill-rule:nonzero;"></path> </g> <g transform="matrix(45.1022,0,0,129.752,539.335,414.043)"> <path d="M0.811,-0.357C0.811,-0.301 0.801,-0.25 0.782,-0.204C0.763,-0.157 0.736,-0.118 0.702,-0.085C0.667,-0.052 0.626,-0.026 0.579,-0.008C0.532,0.01 0.48,0.019 0.425,0.019C0.37,0.019 0.319,0.01 0.272,-0.008C0.225,-0.026 0.184,-0.052 0.15,-0.085C0.115,-0.118 0.088,-0.157 0.069,-0.204C0.05,-0.25 0.04,-0.301 0.04,-0.357C0.04,-0.414 0.05,-0.465 0.069,-0.511C0.088,-0.556 0.115,-0.595 0.15,-0.627C0.184,-0.659 0.225,-0.684 0.272,-0.701C0.319,-0.718 0.37,-0.727 0.425,-0.727C0.48,-0.727 0.532,-0.718 0.579,-0.701C0.626,-0.684 0.667,-0.659 0.702,-0.627C0.736,-0.595 0.763,-0.556 0.782,-0.511C0.801,-0.465 0.811,-0.414 0.811,-0.357ZM0.628,-0.357C0.628,-0.388 0.623,-0.416 0.613,-0.443C0.603,-0.47 0.589,-0.493 0.572,-0.512C0.554,-0.531 0.533,-0.546 0.508,-0.557C0.483,-0.568 0.455,-0.573 0.425,-0.573C0.395,-0.573 0.368,-0.568 0.343,-0.557C0.318,-0.546 0.297,-0.531 0.279,-0.512C0.261,-0.493 0.247,-0.47 0.238,-0.443C0.228,-0.416 0.223,-0.388 0.223,-0.357C0.223,-0.325 0.228,-0.296 0.238,-0.269C0.248,-0.242 0.262,-0.218 0.28,-0.199C0.297,-0.18 0.318,-0.165 0.343,-0.154C0.368,-0.142 0.395,-0.137 0.425,-0.137C0.455,-0.137 0.482,-0.142 0.507,-0.154C0.532,-0.165 0.553,-0.18 0.571,-0.199C0.589,-0.218 0.603,-0.242 0.613,-0.269C0.623,-0.296 0.628,-0.325 0.628,-0.357Z" style="fill:rgb(25,25,23);fill-rule:nonzero;"></path> </g> <g transform="matrix(45.1022,0,0,129.752,577.717,414.043)"> <path d="M0.811,-0.357C0.811,-0.301 0.801,-0.25 0.782,-0.204C0.763,-0.157 0.736,-0.118 0.702,-0.085C0.667,-0.052 0.626,-0.026 0.579,-0.008C0.532,0.01 0.48,0.019 0.425,0.019C0.37,0.019 0.319,0.01 0.272,-0.008C0.225,-0.026 0.184,-0.052 0.15,-0.085C0.115,-0.118 0.088,-0.157 0.069,-0.204C0.05,-0.25 0.04,-0.301 0.04,-0.357C0.04,-0.414 0.05,-0.465 0.069,-0.511C0.088,-0.556 0.115,-0.595 0.15,-0.627C0.184,-0.659 0.225,-0.684 0.272,-0.701C0.319,-0.718 0.37,-0.727 0.425,-0.727C0.48,-0.727 0.532,-0.718 0.579,-0.701C0.626,-0.684 0.667,-0.659 0.702,-0.627C0.736,-0.595 0.763,-0.556 0.782,-0.511C0.801,-0.465 0.811,-0.414 0.811,-0.357ZM0.628,-0.357C0.628,-0.388 0.623,-0.416 0.613,-0.443C0.603,-0.47 0.589,-0.493 0.572,-0.512C0.554,-0.531 0.533,-0.546 0.508,-0.557C0.483,-0.568 0.455,-0.573 0.425,-0.573C0.395,-0.573 0.368,-0.568 0.343,-0.557C0.318,-0.546 0.297,-0.531 0.279,-0.512C0.261,-0.493 0.247,-0.47 0.238,-0.443C0.228,-0.416 0.223,-0.388 0.223,-0.357C0.223,-0.325 0.228,-0.296 0.238,-0.269C0.248,-0.242 0.262,-0.218 0.28,-0.199C0.297,-0.18 0.318,-0.165 0.343,-0.154C0.368,-0.142 0.395,-0.137 0.425,-0.137C0.455,-0.137 0.482,-0.142 0.507,-0.154C0.532,-0.165 0.553,-0.18 0.571,-0.199C0.589,-0.218 0.603,-0.242 0.613,-0.269C0.623,-0.296 0.628,-0.325 0.628,-0.357Z" style="fill:rgb(25,25,23);fill-rule:nonzero;"></path> </g> <g transform="matrix(45.1022,0,0,129.752,616.099,414.043)"> <path d="M0.734,-0.356C0.734,-0.294 0.723,-0.241 0.7,-0.196C0.677,-0.151 0.646,-0.114 0.609,-0.085C0.571,-0.056 0.528,-0.034 0.481,-0.021C0.434,-0.007 0.386,-0 0.337,-0L0.073,-0L0.073,-0.708L0.329,-0.708C0.379,-0.708 0.428,-0.702 0.477,-0.691C0.526,-0.679 0.569,-0.66 0.607,-0.633C0.645,-0.606 0.676,-0.569 0.699,-0.524C0.722,-0.479 0.734,-0.423 0.734,-0.356ZM0.556,-0.356C0.556,-0.396 0.55,-0.429 0.537,-0.456C0.524,-0.482 0.506,-0.503 0.485,-0.519C0.463,-0.534 0.438,-0.545 0.411,-0.552C0.383,-0.559 0.354,-0.562 0.325,-0.562L0.24,-0.562L0.24,-0.148L0.321,-0.148C0.352,-0.148 0.381,-0.152 0.41,-0.159C0.438,-0.166 0.463,-0.177 0.485,-0.193C0.506,-0.209 0.524,-0.23 0.537,-0.257C0.55,-0.284 0.556,-0.317 0.556,-0.356Z" style="fill:rgb(25,25,23);fill-rule:nonzero;"></path> </g> </g> <g transform="matrix(0.988073,0,0,0.530384,28.2753,265.82)"> <g transform="matrix(25.909,0,0,74.5362,350.357,372.3)"> <path d="M0.086,-0.708L0.185,-0.708L0.185,-0.412L0.543,-0.412L0.543,-0.708L0.643,-0.708L0.643,-0L0.543,-0L0.543,-0.324L0.185,-0.324L0.185,-0L0.086,-0L0.086,-0.708Z" style="fill:rgb(138,170,4);fill-rule:nonzero;"></path> </g> <g transform="matrix(25.909,0,0,74.5362,369.245,372.3)"> <path d="M0.8,-0.355C0.8,-0.3 0.791,-0.25 0.772,-0.205C0.752,-0.159 0.726,-0.12 0.693,-0.087C0.66,-0.054 0.62,-0.028 0.574,-0.01C0.528,0.009 0.478,0.018 0.424,0.018C0.37,0.018 0.32,0.009 0.275,-0.01C0.229,-0.028 0.189,-0.054 0.156,-0.087C0.123,-0.12 0.097,-0.159 0.078,-0.205C0.059,-0.25 0.05,-0.3 0.05,-0.355C0.05,-0.41 0.059,-0.461 0.078,-0.507C0.097,-0.552 0.123,-0.591 0.156,-0.624C0.189,-0.656 0.229,-0.681 0.275,-0.699C0.32,-0.717 0.37,-0.726 0.424,-0.726C0.478,-0.726 0.528,-0.717 0.574,-0.699C0.62,-0.681 0.66,-0.656 0.693,-0.624C0.726,-0.591 0.752,-0.552 0.772,-0.507C0.791,-0.461 0.8,-0.41 0.8,-0.355ZM0.693,-0.355C0.693,-0.394 0.687,-0.43 0.674,-0.465C0.661,-0.499 0.643,-0.529 0.62,-0.555C0.597,-0.581 0.568,-0.602 0.536,-0.617C0.502,-0.632 0.465,-0.639 0.424,-0.639C0.383,-0.639 0.346,-0.632 0.314,-0.617C0.281,-0.602 0.253,-0.581 0.23,-0.555C0.207,-0.529 0.189,-0.499 0.176,-0.465C0.163,-0.43 0.157,-0.394 0.157,-0.355C0.157,-0.316 0.163,-0.279 0.176,-0.244C0.189,-0.209 0.207,-0.179 0.23,-0.154C0.253,-0.128 0.281,-0.108 0.314,-0.093C0.347,-0.078 0.383,-0.071 0.424,-0.071C0.465,-0.071 0.502,-0.078 0.535,-0.093C0.568,-0.108 0.597,-0.128 0.62,-0.154C0.643,-0.179 0.661,-0.209 0.674,-0.244C0.687,-0.279 0.693,-0.316 0.693,-0.355Z" style="fill:rgb(138,170,4);fill-rule:nonzero;"></path> </g> <g transform="matrix(25.909,0,0,74.5362,391.241,372.3)"> <path d="M0.356,0.018C0.309,0.018 0.269,0.01 0.234,-0.006C0.199,-0.021 0.171,-0.042 0.148,-0.068C0.125,-0.094 0.109,-0.124 0.098,-0.158C0.087,-0.191 0.081,-0.226 0.081,-0.262L0.081,-0.708L0.18,-0.708L0.18,-0.268C0.18,-0.244 0.183,-0.22 0.189,-0.197C0.195,-0.173 0.205,-0.152 0.219,-0.133C0.232,-0.114 0.25,-0.099 0.273,-0.088C0.295,-0.077 0.323,-0.071 0.356,-0.071C0.389,-0.071 0.416,-0.077 0.439,-0.088C0.462,-0.099 0.48,-0.114 0.494,-0.133C0.507,-0.152 0.517,-0.173 0.523,-0.197C0.529,-0.22 0.532,-0.244 0.532,-0.268L0.532,-0.708L0.631,-0.708L0.631,-0.262C0.631,-0.226 0.626,-0.191 0.615,-0.158C0.604,-0.124 0.587,-0.094 0.564,-0.068C0.541,-0.042 0.513,-0.021 0.478,-0.006C0.443,0.01 0.403,0.018 0.356,0.018Z" style="fill:rgb(138,170,4);fill-rule:nonzero;"></path> </g> <g transform="matrix(25.909,0,0,74.5362,409.689,372.3)"> <path d="M0.438,-0.577C0.424,-0.596 0.405,-0.612 0.381,-0.625C0.357,-0.637 0.33,-0.643 0.3,-0.643C0.284,-0.643 0.268,-0.641 0.252,-0.637C0.235,-0.632 0.22,-0.625 0.207,-0.616C0.194,-0.606 0.183,-0.594 0.175,-0.58C0.166,-0.565 0.162,-0.548 0.162,-0.528C0.162,-0.509 0.166,-0.493 0.174,-0.48C0.181,-0.467 0.192,-0.456 0.205,-0.447C0.218,-0.438 0.233,-0.43 0.251,-0.424C0.268,-0.417 0.287,-0.411 0.307,-0.404C0.331,-0.397 0.355,-0.388 0.38,-0.379C0.405,-0.37 0.427,-0.357 0.447,-0.342C0.467,-0.327 0.483,-0.308 0.496,-0.285C0.509,-0.262 0.515,-0.232 0.515,-0.197C0.515,-0.16 0.508,-0.129 0.495,-0.102C0.481,-0.075 0.463,-0.052 0.44,-0.035C0.417,-0.017 0.391,-0.004 0.362,0.005C0.332,0.014 0.301,0.018 0.27,0.018C0.225,0.018 0.182,0.009 0.141,-0.008C0.099,-0.025 0.064,-0.051 0.037,-0.085L0.114,-0.15C0.131,-0.125 0.153,-0.105 0.181,-0.09C0.209,-0.075 0.239,-0.067 0.272,-0.067C0.289,-0.067 0.305,-0.069 0.322,-0.074C0.339,-0.079 0.354,-0.086 0.368,-0.096C0.381,-0.106 0.392,-0.119 0.401,-0.134C0.41,-0.149 0.414,-0.167 0.414,-0.188C0.414,-0.209 0.41,-0.227 0.401,-0.242C0.392,-0.256 0.379,-0.268 0.364,-0.278C0.349,-0.288 0.331,-0.297 0.311,-0.304C0.29,-0.311 0.269,-0.318 0.246,-0.325C0.223,-0.332 0.201,-0.34 0.179,-0.35C0.157,-0.359 0.137,-0.372 0.12,-0.387C0.103,-0.402 0.089,-0.42 0.078,-0.442C0.067,-0.464 0.062,-0.491 0.062,-0.524C0.062,-0.559 0.069,-0.59 0.084,-0.615C0.098,-0.64 0.117,-0.661 0.14,-0.678C0.163,-0.695 0.189,-0.707 0.218,-0.715C0.247,-0.722 0.276,-0.726 0.305,-0.726C0.346,-0.726 0.385,-0.719 0.421,-0.704C0.457,-0.689 0.486,-0.67 0.508,-0.645L0.438,-0.577Z" style="fill:rgb(138,170,4);fill-rule:nonzero;"></path> </g> <g transform="matrix(25.909,0,0,74.5362,424.431,372.3)"> <rect x="0.086" y="-0.708" width="0.099" height="0.708" style="fill:rgb(138,170,4);fill-rule:nonzero;"></rect> </g> <g transform="matrix(25.909,0,0,74.5362,431.452,372.3)"> <path d="M0.585,-0.142L0.587,-0.142L0.587,-0.708L0.686,-0.708L0.686,-0L0.561,-0L0.187,-0.578L0.185,-0.578L0.185,-0L0.086,-0L0.086,-0.708L0.215,-0.708L0.585,-0.142Z" style="fill:rgb(138,170,4);fill-rule:nonzero;"></path> </g> <g transform="matrix(25.909,0,0,74.5362,451.454,372.3)"> <path d="M0.62,-0.562C0.599,-0.585 0.572,-0.604 0.539,-0.618C0.505,-0.632 0.469,-0.639 0.428,-0.639C0.387,-0.639 0.349,-0.632 0.316,-0.617C0.283,-0.602 0.254,-0.581 0.231,-0.555C0.208,-0.529 0.19,-0.499 0.177,-0.465C0.164,-0.43 0.158,-0.394 0.158,-0.355C0.158,-0.316 0.164,-0.279 0.177,-0.244C0.19,-0.209 0.208,-0.179 0.231,-0.154C0.254,-0.128 0.283,-0.108 0.317,-0.093C0.351,-0.078 0.389,-0.071 0.431,-0.071C0.464,-0.071 0.495,-0.074 0.523,-0.08C0.551,-0.086 0.575,-0.095 0.596,-0.106L0.596,-0.303L0.439,-0.303L0.439,-0.387L0.694,-0.387L0.694,-0.044C0.657,-0.024 0.616,-0.009 0.572,0.002C0.528,0.013 0.48,0.018 0.428,0.018C0.373,0.018 0.322,0.009 0.276,-0.01C0.229,-0.028 0.189,-0.054 0.156,-0.087C0.123,-0.12 0.097,-0.159 0.078,-0.205C0.059,-0.25 0.05,-0.3 0.05,-0.355C0.05,-0.41 0.059,-0.461 0.079,-0.507C0.097,-0.552 0.124,-0.591 0.158,-0.624C0.191,-0.656 0.231,-0.681 0.277,-0.699C0.323,-0.717 0.373,-0.726 0.427,-0.726C0.484,-0.726 0.534,-0.718 0.579,-0.701C0.623,-0.684 0.66,-0.662 0.689,-0.634L0.62,-0.562Z" style="fill:rgb(138,170,4);fill-rule:nonzero;"></path> </g> <g transform="matrix(25.909,0,0,74.5362,478.088,372.3)"> <path d="M0.62,-0.562C0.599,-0.585 0.572,-0.604 0.539,-0.618C0.505,-0.632 0.469,-0.639 0.428,-0.639C0.387,-0.639 0.349,-0.632 0.316,-0.617C0.283,-0.602 0.254,-0.581 0.231,-0.555C0.208,-0.529 0.19,-0.499 0.177,-0.465C0.164,-0.43 0.158,-0.394 0.158,-0.355C0.158,-0.316 0.164,-0.279 0.177,-0.244C0.19,-0.209 0.208,-0.179 0.231,-0.154C0.254,-0.128 0.283,-0.108 0.317,-0.093C0.351,-0.078 0.389,-0.071 0.431,-0.071C0.464,-0.071 0.495,-0.074 0.523,-0.08C0.551,-0.086 0.575,-0.095 0.596,-0.106L0.596,-0.303L0.439,-0.303L0.439,-0.387L0.694,-0.387L0.694,-0.044C0.657,-0.024 0.616,-0.009 0.572,0.002C0.528,0.013 0.48,0.018 0.428,0.018C0.373,0.018 0.322,0.009 0.276,-0.01C0.229,-0.028 0.189,-0.054 0.156,-0.087C0.123,-0.12 0.097,-0.159 0.078,-0.205C0.059,-0.25 0.05,-0.3 0.05,-0.355C0.05,-0.41 0.059,-0.461 0.079,-0.507C0.097,-0.552 0.124,-0.591 0.158,-0.624C0.191,-0.656 0.231,-0.681 0.277,-0.699C0.323,-0.717 0.373,-0.726 0.427,-0.726C0.484,-0.726 0.534,-0.718 0.579,-0.701C0.623,-0.684 0.66,-0.662 0.689,-0.634L0.62,-0.562Z" style="fill:rgb(138,170,4);fill-rule:nonzero;"></path> </g> <g transform="matrix(25.909,0,0,74.5362,498.246,372.3)"> <path d="M0.185,-0L0.086,-0L0.086,-0.708L0.313,-0.708C0.347,-0.708 0.379,-0.705 0.41,-0.698C0.441,-0.691 0.468,-0.679 0.491,-0.664C0.514,-0.649 0.532,-0.628 0.545,-0.604C0.558,-0.579 0.565,-0.548 0.565,-0.512C0.565,-0.46 0.549,-0.418 0.517,-0.386C0.485,-0.354 0.444,-0.334 0.393,-0.325L0.591,-0L0.471,-0L0.291,-0.315L0.185,-0.315L0.185,-0ZM0.185,-0.398L0.299,-0.398C0.322,-0.398 0.344,-0.4 0.364,-0.404C0.384,-0.408 0.401,-0.415 0.417,-0.424C0.432,-0.432 0.443,-0.444 0.452,-0.459C0.461,-0.473 0.465,-0.491 0.465,-0.512C0.465,-0.533 0.461,-0.551 0.452,-0.566C0.443,-0.58 0.432,-0.591 0.418,-0.6C0.403,-0.609 0.386,-0.615 0.367,-0.619C0.348,-0.622 0.327,-0.624 0.306,-0.624L0.185,-0.624L0.185,-0.398Z" style="fill:rgb(138,170,4);fill-rule:nonzero;"></path> </g> <g transform="matrix(25.909,0,0,74.5362,514.154,372.3)"> <path d="M0.8,-0.355C0.8,-0.3 0.791,-0.25 0.772,-0.205C0.752,-0.159 0.726,-0.12 0.693,-0.087C0.66,-0.054 0.62,-0.028 0.574,-0.01C0.528,0.009 0.478,0.018 0.424,0.018C0.37,0.018 0.32,0.009 0.275,-0.01C0.229,-0.028 0.189,-0.054 0.156,-0.087C0.123,-0.12 0.097,-0.159 0.078,-0.205C0.059,-0.25 0.05,-0.3 0.05,-0.355C0.05,-0.41 0.059,-0.461 0.078,-0.507C0.097,-0.552 0.123,-0.591 0.156,-0.624C0.189,-0.656 0.229,-0.681 0.275,-0.699C0.32,-0.717 0.37,-0.726 0.424,-0.726C0.478,-0.726 0.528,-0.717 0.574,-0.699C0.62,-0.681 0.66,-0.656 0.693,-0.624C0.726,-0.591 0.752,-0.552 0.772,-0.507C0.791,-0.461 0.8,-0.41 0.8,-0.355ZM0.693,-0.355C0.693,-0.394 0.687,-0.43 0.674,-0.465C0.661,-0.499 0.643,-0.529 0.62,-0.555C0.597,-0.581 0.568,-0.602 0.536,-0.617C0.502,-0.632 0.465,-0.639 0.424,-0.639C0.383,-0.639 0.346,-0.632 0.314,-0.617C0.281,-0.602 0.253,-0.581 0.23,-0.555C0.207,-0.529 0.189,-0.499 0.176,-0.465C0.163,-0.43 0.157,-0.394 0.157,-0.355C0.157,-0.316 0.163,-0.279 0.176,-0.244C0.189,-0.209 0.207,-0.179 0.23,-0.154C0.253,-0.128 0.281,-0.108 0.314,-0.093C0.347,-0.078 0.383,-0.071 0.424,-0.071C0.465,-0.071 0.502,-0.078 0.535,-0.093C0.568,-0.108 0.597,-0.128 0.62,-0.154C0.643,-0.179 0.661,-0.209 0.674,-0.244C0.687,-0.279 0.693,-0.316 0.693,-0.355Z" style="fill:rgb(138,170,4);fill-rule:nonzero;"></path> </g> <g transform="matrix(25.909,0,0,74.5362,536.151,372.3)"> <path d="M0.356,0.018C0.309,0.018 0.269,0.01 0.234,-0.006C0.199,-0.021 0.171,-0.042 0.148,-0.068C0.125,-0.094 0.109,-0.124 0.098,-0.158C0.087,-0.191 0.081,-0.226 0.081,-0.262L0.081,-0.708L0.18,-0.708L0.18,-0.268C0.18,-0.244 0.183,-0.22 0.189,-0.197C0.195,-0.173 0.205,-0.152 0.219,-0.133C0.232,-0.114 0.25,-0.099 0.273,-0.088C0.295,-0.077 0.323,-0.071 0.356,-0.071C0.389,-0.071 0.416,-0.077 0.439,-0.088C0.462,-0.099 0.48,-0.114 0.494,-0.133C0.507,-0.152 0.517,-0.173 0.523,-0.197C0.529,-0.22 0.532,-0.244 0.532,-0.268L0.532,-0.708L0.631,-0.708L0.631,-0.262C0.631,-0.226 0.626,-0.191 0.615,-0.158C0.604,-0.124 0.587,-0.094 0.564,-0.068C0.541,-0.042 0.513,-0.021 0.478,-0.006C0.443,0.01 0.403,0.018 0.356,0.018Z" style="fill:rgb(138,170,4);fill-rule:nonzero;"></path> </g> <g transform="matrix(25.909,0,0,74.5362,554.598,372.3)"> <path d="M0.086,-0.708L0.302,-0.708C0.34,-0.708 0.375,-0.704 0.406,-0.697C0.437,-0.689 0.464,-0.677 0.486,-0.661C0.508,-0.645 0.525,-0.625 0.537,-0.6C0.549,-0.575 0.555,-0.546 0.555,-0.511C0.555,-0.476 0.549,-0.445 0.536,-0.42C0.523,-0.395 0.505,-0.374 0.482,-0.358C0.458,-0.342 0.431,-0.33 0.4,-0.323C0.368,-0.315 0.334,-0.311 0.297,-0.311L0.185,-0.311L0.185,-0L0.086,-0L0.086,-0.708ZM0.185,-0.395L0.29,-0.395C0.314,-0.395 0.336,-0.397 0.357,-0.402C0.377,-0.406 0.394,-0.413 0.409,-0.422C0.424,-0.431 0.435,-0.442 0.443,-0.457C0.451,-0.472 0.455,-0.49 0.455,-0.511C0.455,-0.532 0.451,-0.55 0.443,-0.565C0.434,-0.579 0.423,-0.591 0.409,-0.6C0.394,-0.608 0.377,-0.615 0.357,-0.619C0.337,-0.622 0.315,-0.624 0.292,-0.624L0.185,-0.624L0.185,-0.395Z" style="fill:rgb(138,170,4);fill-rule:nonzero;"></path> </g> </g> </g> </g> </svg> 